<?xml version="1.0" encoding="utf-8"?>
<!-- Generator: Adobe Illustrator 26.0.3, SVG Export Plug-In . SVG Version: 6.00 Build 0)  -->
<svg version="1.1" id="Layer_1" xmlns="http://www.w3.org/2000/svg" xmlns:xlink="http://www.w3.org/1999/xlink" x="0px" y="0px"
	 viewBox="0 0 146 44" style="enable-background:new 0 0 146 44;" xml:space="preserve">
<style type="text/css">
	.st0{fill:#008BD5;}
	.st1{fill:#00A240;}
	.st2{fill-rule:evenodd;clip-rule:evenodd;fill:#008BD5;}
	.st3{fill-rule:evenodd;clip-rule:evenodd;fill:#00A63C;}
	.st4{fill:#00A63C;}
</style>
<g>
	<g>
		<g>
			<path class="st0" d="M22.9,1.7c0.4,1.5,0.3,4-0.5,4.2c-0.8,0.2-2.2-1.8-2.7-3.2c-0.5-1.5,0.2-2.2,1.1-2.4
				C21.5,0.1,22.4,0.2,22.9,1.7z"/>
			<path class="st0" d="M11,5.2c1,1.2,1.9,3.5,1.3,4.1c-0.7,0.5-2.7-0.7-3.8-1.9c-1.1-1.2-0.7-2.1,0-2.6C9.2,4.3,10,4,11,5.2z"/>
			<path class="st0" d="M3.5,15.6c1.5,0.6,3.3,2.3,3,3c-0.3,0.8-2.7,0.6-4.2,0.1c-1.5-0.6-1.5-1.5-1.2-2.3C1.4,15.6,2,15,3.5,15.6z"
				/>
		</g>
		<g>
			<path class="st1" d="M36.1,19.5c0,3.3-2.9,5.9-6.4,5.9c-3.5,0-6.4-2.6-6.4-5.9c0-3.3,2.9-5.9,6.4-5.9
				C33.3,13.6,36.1,16.3,36.1,19.5z"/>
			<path class="st1" d="M17,25.1c0,0-0.2-0.3,0.1-0.4c0.2-0.1,0.4,0.2,0.4,0.2s4.5,7.6,16.3,4.8c0,0,9.7-2.5,9.9-12.6
				c0,0,0-0.4,0.2-0.4c0,0,0.3-0.1,0.4,0.3c0.2,0.7,1.8,13.1-9.6,16.1C34.8,33.2,21.3,36.4,17,25.1z"/>
		</g>
		<path class="st0" d="M46.1,27.3c-0.3-0.1-0.4,0.2-0.6,0.8c-2,6.4-8.3,11-15.9,11c-9.1,0-16.5-6.8-16.5-15.2
			c0-6.9,5.2-12.4,11.9-14.4c4.2-1,7.2-0.4,8.1-0.2c0.5,0.1,0.7,0.1,0.7,0.1C34,9.3,34.1,9,34,8.9c-0.1-0.3-0.5-0.4-0.5-0.4
			c-2.4-0.9-5.1-1-6.5-1c0,0,0,0,0,0c0,0,0,0,0,0c-0.5,0-0.8,0-0.8,0l0,0c-0.1,0-0.3,0-0.4,0C15.6,8.1,7.4,16,7.4,25.6
			c0,10,8.8,18.1,19.6,18.1c9.9,0,18.2-6.3,19.4-15.7C46.5,27.6,46.3,27.3,46.1,27.3z"/>
	</g>
	<g>
		<path class="st0" d="M58,7.6c-0.9,0.2-2.1,0.4-3.6,0.6v1.5h5.3c0.1,0,0.2,0.1,0.2,0.2v0.5c0,0.2,0,0.2-0.2,0.2h-4.9
			c0.5,0.6,1,1,1.5,1.3c0.5,0.4,1.2,0.8,2,1.2c0.6,0.3,1.3,0.5,1.9,0.7c0,0.1-0.1,0.1-0.1,0.2c-0.2,0.2-0.4,0.4-0.5,0.6
			c0,0.1-0.1,0.1-0.1,0.1c-1-0.4-1.8-0.8-2.4-1.2c-0.7-0.4-1.3-0.9-1.8-1.4c-0.3-0.2-0.5-0.5-0.8-0.9v2.4c0,0.1-0.1,0.2-0.2,0.2
			h-0.5c-0.1,0-0.2-0.1-0.2-0.2v-2.1c-0.1,0.1-0.2,0.2-0.3,0.3c-0.5,0.5-0.9,0.9-1.4,1.2c-0.5,0.4-1.1,0.7-1.8,1
			c-0.8,0.4-1.3,0.6-1.4,0.6c-0.1,0-0.1-0.1-0.2-0.2c-0.1-0.2-0.3-0.3-0.5-0.5c-0.1-0.1-0.1-0.1-0.1-0.2c0.9-0.3,1.7-0.5,2.3-0.8
			c0.6-0.3,1.3-0.7,1.9-1.2c0.3-0.3,0.7-0.7,1.2-1.2h-4.9c-0.1,0-0.2-0.1-0.2-0.2V9.9c0-0.2,0.1-0.2,0.2-0.2h5.2V8.3
			c-1.1,0.1-2.3,0.1-3.5,0.1c-0.1,0-0.2-0.1-0.2-0.2c-0.1-0.2-0.2-0.4-0.3-0.6c0-0.2,0.1-0.2,0.2-0.2c2,0,3.4,0,4.3-0.1
			c1.4-0.1,2.5-0.3,3.5-0.6c0.1,0,0.2-0.1,0.4-0.1c0.1,0,0.1,0,0.2,0.1c0.4,0.5,0.5,0.7,0.5,0.8c0,0.1,0,0.2-0.1,0.2L58,7.6z
			 M50.2,14.3h7.5c0.1,0,0.2,0.1,0.2,0.2v5.3c0,0.1-0.1,0.2-0.2,0.2h-0.5c-0.1,0-0.2-0.1-0.2-0.2v-0.4H51v0.4c0,0.1-0.1,0.2-0.2,0.2
			h-0.5c-0.1,0-0.2-0.1-0.2-0.2v-5.2C50,14.4,50.1,14.3,50.2,14.3z M51,16.4H57v-1.2H51V16.4z M51,18.5H57v-1.2H51V18.5z"/>
		<path class="st0" d="M62.9,10.3c0.4,0.3,0.8,0.5,1.1,0.7c0.3,0.3,0.6,0.5,0.8,0.7c0,0,0,0.1-0.1,0.1c-0.3,0.4-0.4,0.6-0.4,0.6
			c-0.4-0.3-0.7-0.6-1.1-0.9c-0.3-0.2-0.6-0.4-0.8-0.5c0,0,0.1-0.3,0.4-0.6C62.8,10.4,62.9,10.3,62.9,10.3z M64.8,14.1
			c0,0,0.1,0,0.1,0.1c0.2,0.5,0.3,0.8,0.3,0.9c0,0.1,0,0.1-0.1,0.2c-0.4,1-0.7,1.9-1,2.6c-0.2,0.4-0.4,0.9-0.6,1.3
			c0,0.1-0.1,0.3-0.1,0.5c0,0.1,0,0.2-0.1,0.2c-0.1,0-0.3-0.3-0.8-0.9c0,0-0.1-0.1-0.1-0.2c0-0.1,0-0.1,0.1-0.2
			c0.2-0.3,0.5-0.6,0.7-1c0.3-0.5,0.6-1.1,0.9-1.8C64.3,15.2,64.5,14.7,64.8,14.1C64.8,14.1,64.8,14.1,64.8,14.1z M63.5,6.9
			c0.4,0.2,0.8,0.4,1,0.6c0.3,0.2,0.6,0.4,0.8,0.6c0,0,0,0-0.1,0.1c-0.3,0.4-0.4,0.6-0.4,0.6c-0.3-0.3-0.7-0.6-1.1-0.8
			c-0.3-0.2-0.6-0.4-0.8-0.4c0,0,0.1-0.3,0.4-0.6C63.4,7,63.5,6.9,63.5,6.9z M66,8.4h1.9V6.8c0-0.1,0.1-0.2,0.2-0.2
			c0.7,0,1,0.1,1,0.2C69,6.9,69,7,68.9,7c-0.1,0-0.1,0.1-0.1,0.3v1.1H71V6.8c0-0.1,0.1-0.2,0.2-0.2c0.7,0,1,0.1,1,0.2
			c0,0.1,0,0.2-0.1,0.2C72,7,72,7.1,72,7.3v1.1h1.9C74,8.4,74,8.5,74,8.7v0.5c0,0.2-0.1,0.2-0.2,0.2H72v2h2.3c0.1,0,0.1,0.1,0.1,0.2
			V12c0,0.1,0,0.2-0.1,0.2h-2.1c0.2,0.5,0.5,0.9,0.7,1.2c0.3,0.4,0.6,0.8,0.9,1.1c0.3,0.3,0.6,0.5,0.9,0.6c0,0.1,0,0.1-0.1,0.2
			c-0.2,0.2-0.3,0.4-0.5,0.6c0,0.1-0.1,0.1-0.1,0.1c-0.5-0.3-0.9-0.7-1.2-1.1c-0.2-0.2-0.4-0.4-0.5-0.7v2.7c0,0.2-0.1,0.2-0.2,0.2
			h-3.8v1c0,0.4,0.2,0.6,0.7,0.6h3.4c0.4,0,0.7-0.1,0.8-0.4c0.1-0.1,0.2-0.4,0.3-0.9c0.3,0.2,0.5,0.4,0.7,0.4c0.1,0,0.1,0.1,0.1,0.2
			c-0.1,0.6-0.3,1-0.4,1.2c-0.1,0.3-0.5,0.5-1.1,0.5h-4.2c-0.7,0-1.1-0.3-1.1-0.9v-4.2c-0.1,0.2-0.2,0.4-0.4,0.5
			c-0.4,0.4-0.7,0.8-1.1,1.1c-0.1,0-0.2,0-0.2-0.1c-0.2-0.2-0.3-0.3-0.5-0.5c0-0.1,0-0.1,0-0.1c0.3-0.3,0.6-0.5,0.8-0.7
			c0.3-0.3,0.6-0.7,1-1.3c0.2-0.3,0.4-0.7,0.7-1.4h-2.1c-0.1,0-0.2-0.1-0.2-0.2v-0.5c0-0.1,0.1-0.2,0.2-0.2h2.2v-2H66
			c-0.1,0-0.2-0.1-0.2-0.2V8.7C65.8,8.5,65.9,8.4,66,8.4z M67.9,13.9C67.9,13.8,67.9,13.8,67.9,13.9l4.1,0c-0.1-0.1-0.1-0.1-0.1-0.2
			c-0.2-0.4-0.4-0.8-0.7-1.4h-2.5C68.4,12.9,68.1,13.4,67.9,13.9z M68.3,14.8v1.5h3v-1.5H68.3z M68.8,11.3H71v-2h-2.2V11.3z"/>
		<path class="st0" d="M78.5,8.4h1.9V6.9c0-0.1,0.1-0.2,0.2-0.2c0.7,0,1,0.1,1,0.2c0,0.1,0,0.2-0.1,0.2c-0.1,0-0.1,0.1-0.1,0.3v1H83
			c0.1,0,0.1,0.1,0.1,0.2v0.5c0,0.2,0,0.2-0.1,0.2h-1.7v1.5h1.1c0.3-0.3,0.5-0.7,0.7-1c0.3-0.6,0.6-1.2,0.9-1.9c0-0.1,0-0.1,0.1-0.1
			l0.8,0.4c0.1,0.1,0.1,0.1,0.1,0.2c0,0.1,0,0.1-0.1,0.1c-0.1,0-0.2,0.1-0.2,0.1c-0.4,0.9-0.8,1.6-1.2,2.2h0.6
			c0.1,0,0.2,0.1,0.2,0.2v0.5c0,0.1-0.1,0.2-0.2,0.2h-1.2c-0.4,0.5-0.7,0.9-1.2,1.2c-0.1,0.1-0.2,0.1-0.2,0.2h1.8
			c0.1,0,0.2,0,0.2,0.1c0.2,0.2,0.2,0.3,0.2,0.4l-1.9,2.2c0,0,0,0,0,0v0.3c0.7-0.2,1.4-0.3,2.1-0.5c0,0,0,0,0.1,0
			c0.1,0,0.1,0,0.1,0.1c0,0.5,0,0.8-0.1,0.8c-0.8,0.2-1.5,0.3-2.3,0.5v2.1c0,0.7-0.5,1-1.4,1L79.6,20c0,0-0.1-0.1-0.1-0.3
			c0-0.2-0.1-0.4-0.2-0.7c0-0.1,0-0.1,0.1-0.1c0.5,0.2,0.8,0.2,1.1,0.2c0.3,0,0.4-0.2,0.4-0.5v-1.5c-0.7,0.1-1.3,0.3-2,0.4
			c-0.1,0.3-0.2,0.4-0.3,0.4c-0.1,0-0.3-0.4-0.5-1.2c0.8-0.1,1.7-0.3,2.8-0.5c0,0,0,0,0,0v-1.2c0-0.1,0.1-0.2,0.2-0.2l0.3,0.1l0.9-1
			h-2.1c-0.2,0.1-0.3,0.2-0.5,0.3c-0.5,0.3-0.9,0.5-1.2,0.6c-0.1,0-0.2,0-0.2-0.1c-0.1-0.3-0.3-0.5-0.5-0.8c0.6-0.2,1.2-0.5,1.9-0.9
			c0.7-0.4,1.4-1,2-1.5c0,0,0,0,0,0h-3.5c-0.1,0-0.1-0.1-0.1-0.2V11c0-0.2,0-0.2,0.1-0.2h2.3V9.3h-1.9c-0.1,0-0.2-0.1-0.2-0.2V8.6
			C78.3,8.4,78.4,8.4,78.5,8.4z M86.2,6.7l0.9,0.4c0.1,0.1,0.1,0.1,0.1,0.2c0,0.1,0,0.1-0.1,0.2c-0.1,0-0.2,0.1-0.2,0.2
			c-0.1,0.6-0.2,1.2-0.3,1.6h3.3c0.1,0,0.1,0.1,0.1,0.2V10c0,0.1,0,0.2-0.1,0.2h-0.7c0,1.8-0.2,3.2-0.4,4c-0.3,1.2-0.6,2.2-1.1,2.9
			c0.2,0.2,0.4,0.4,0.6,0.6c0.5,0.5,1.2,1,2,1.5c0,0.1,0,0.1-0.1,0.2c-0.1,0.1-0.3,0.3-0.5,0.4C89.5,20,89.4,20,89.3,20
			c-0.5-0.3-0.9-0.7-1.4-1.1c-0.3-0.3-0.6-0.6-0.8-0.9c-0.3,0.3-0.5,0.6-0.8,0.8c-0.5,0.5-1.2,0.9-2,1.2c-0.2-0.3-0.4-0.5-0.6-0.7
			c0.4-0.2,0.9-0.5,1.5-0.9c0.5-0.4,1-0.8,1.3-1.3c-0.3-0.5-0.5-1.1-0.8-1.8c-0.2-0.6-0.3-1.4-0.4-2.4c-0.1,0.2-0.2,0.3-0.3,0.5
			c-0.1,0-0.2,0-0.3,0c-0.2-0.1-0.3-0.1-0.5-0.2c-0.1,0-0.1-0.1-0.1-0.1c0-0.1,0-0.1,0-0.2c0.4-0.6,0.7-1.3,1-2.2
			c0.2-0.5,0.3-1,0.5-1.6c0.1-0.6,0.3-1.4,0.4-2.3C86.1,6.7,86.1,6.7,86.2,6.7z M85.6,12.2h0.3c0.2,0,0.3,0.1,0.3,0.3
			c0,0.9,0.2,1.7,0.3,2.2c0.2,0.5,0.3,1,0.6,1.5c0.3-0.7,0.6-1.4,0.7-2.2c0.2-0.9,0.3-2.1,0.4-3.8h-1.9v0c-0.2,0.6-0.4,1.2-0.6,1.8
			C85.7,12.1,85.7,12.2,85.6,12.2z"/>
		<path class="st0" d="M98.2,6.4c0.7,0,1,0.1,1,0.2c0,0.1,0,0.2-0.1,0.2c-0.1,0-0.1,0.1-0.1,0.3v0.6h5.2c0.1,0,0.2,0.1,0.2,0.2v0.5
			c0,0.2-0.1,0.2-0.2,0.2H101c0.6,0.5,1.2,1,1.6,1.4c0.5,0.6,1,1.1,1.3,1.5c0,0,0,0.1-0.1,0.1c-0.3,0.4-0.4,0.6-0.4,0.6
			c-0.3-0.4-0.7-0.9-1.1-1.2c-2.5,0.2-5.2,0.5-8.3,0.6c-0.1,0-0.2,0.1-0.4,0.2c0,0.1-0.1,0.2-0.2,0.2c-0.1,0-0.3-0.4-0.6-1.2
			c0.7,0,1.3-0.1,2-0.1c0.5-0.6,1-1.2,1.4-1.8c0.1-0.1,0.1-0.2,0.2-0.3h-3.8c-0.1,0-0.1-0.1-0.1-0.2V8c0-0.2,0-0.2,0.1-0.2H98V6.6
			C98,6.5,98,6.4,98.2,6.4z M94.9,12.5h6.9c0.2,0,0.3,0.1,0.3,0.2v6.5c0,0.3-0.2,0.5-0.6,0.6c-0.4,0.1-0.9,0.2-1.5,0.2
			c-0.1,0-0.1-0.1-0.2-0.2c0-0.2-0.1-0.5-0.3-0.9c0,0,0,0,0.1,0c0.7,0,1.2,0,1.3-0.1c0.2-0.1,0.2-0.2,0.2-0.3v-0.8h-5.5v2.2
			c0,0.1-0.1,0.2-0.2,0.2h-0.5c-0.1,0-0.2-0.1-0.2-0.2v-7.2C94.7,12.5,94.8,12.5,94.9,12.5z M95.7,14.6h5.5v-1.3h-5.5V14.6z
			 M95.7,16.8h5.5v-1.3h-5.5V16.8z M101.6,10.3c-0.5-0.4-0.9-0.8-1.2-1c0-0.1,0.1-0.3,0.4-0.6h-2.9c-0.4,0.4-0.8,0.9-1.4,1.5
			c-0.2,0.2-0.3,0.3-0.5,0.5C97.8,10.6,99.7,10.4,101.6,10.3z"/>
		<path class="st0" d="M106.5,10.7h1.4V7.3c0-0.1,0.1-0.2,0.2-0.2c0.7,0,1,0.1,1,0.2c0,0.1,0,0.2-0.1,0.2c-0.1,0-0.1,0.1-0.1,0.3
			v2.9h1.1c0.1,0,0.2,0.1,0.2,0.2v0.6c0,0.1-0.1,0.2-0.2,0.2h-1.1v3.9c0.4-0.2,0.8-0.4,1.2-0.5c0,0,0.1,0,0.1,0c0.1,0,0.1,0,0.1,0.2
			c0,0.5,0,0.8-0.1,0.9c-1,0.5-2.1,1-3.1,1.3c-0.1,0.3-0.3,0.4-0.4,0.4c-0.1,0-0.3-0.4-0.5-1.3c0.5-0.1,1-0.3,1.7-0.5v-4.2h-1.4
			c-0.1,0-0.1-0.1-0.1-0.2v-0.6C106.4,10.8,106.4,10.7,106.5,10.7z M111.5,9.9v2.3h2.3c0.1,0,0.2,0.1,0.2,0.3c0,1.4,0,2.4-0.1,3.1
			c-0.1,0.7-0.2,1.3-0.3,1.6c-0.1,0.4-0.5,0.6-1.1,0.6c-0.3,0-0.5-0.1-0.5-0.3c0-0.2-0.1-0.5-0.2-0.8v-0.1c0.2,0.1,0.5,0.1,0.7,0.1
			c0.2,0,0.4-0.1,0.4-0.4c0.1-0.2,0.1-0.6,0.2-1.2c0-0.4,0.1-1.1,0.1-1.9h-1.6v0.2c0,1.4-0.1,2.4-0.3,3.2c-0.1,0.7-0.3,1.3-0.7,2
			c-0.2,0.4-0.4,0.8-0.7,1.1c-0.1,0-0.1,0-0.1,0c-0.1-0.1-0.3-0.3-0.5-0.4c0,0-0.1-0.1-0.1-0.2c0.3-0.3,0.6-0.8,0.8-1.4
			c0.2-0.6,0.4-1.2,0.5-1.9c0.1-0.7,0.2-1.5,0.2-2.5V9.2c0-0.2,0.1-0.2,0.2-0.2h3.8c0-0.7,0-1.5-0.1-2.4c0-0.1,0-0.1,0.1-0.1
			c0.8,0.1,1.2,0.2,1.2,0.2c0,0.1-0.1,0.2-0.2,0.2c-0.1,0.1-0.2,0.3-0.2,0.4c0,0.6,0,1.1,0,1.7h2.7c0.1,0,0.2,0.1,0.2,0.2v0.5
			c0,0.2-0.1,0.2-0.2,0.2h-2.7c0,1.1,0,2.1,0.1,2.8c0.1,1.2,0.2,2.2,0.4,3c0,0,0,0.1,0,0.1c0.2-0.5,0.4-1.1,0.6-1.7
			c0.2-0.7,0.4-1.5,0.5-2.3c0-0.1,0.1-0.2,0.2-0.2c0.7,0.3,1,0.4,1,0.5c0,0.1-0.1,0.2-0.2,0.2c-0.1,0-0.2,0.1-0.3,0.2
			c-0.3,1.1-0.5,2-0.9,2.9c-0.2,0.6-0.5,1.1-0.7,1.6c0,0.1,0.1,0.3,0.1,0.4c0.1,0.3,0.3,0.6,0.4,0.8c0.1,0.2,0.2,0.3,0.3,0.3
			c0.1,0,0.2-0.1,0.3-0.4c0.1-0.3,0.2-0.8,0.3-1.3c0-0.1,0-0.1,0.1-0.1c0.1,0,0.1,0,0.2,0.1c0.2,0.1,0.3,0.3,0.5,0.5
			c0,0,0.1,0.1,0.1,0.2c-0.3,0.9-0.6,1.5-0.8,1.9c-0.2,0.3-0.4,0.4-0.6,0.4c-0.2,0-0.4-0.1-0.5-0.3c-0.3-0.2-0.5-0.5-0.7-1
			c-0.1-0.1-0.1-0.3-0.2-0.4c-0.4,0.7-1,1.3-1.6,1.8c-0.1,0-0.1,0.1-0.2,0.1c-0.1,0-0.2-0.1-0.2-0.2c-0.1-0.2-0.2-0.3-0.3-0.4
			c-0.1,0-0.1-0.1-0.1-0.2c0,0,0-0.1,0.1-0.1c0.3-0.1,0.5-0.4,0.8-0.6c0.4-0.4,0.8-0.9,1.2-1.5c0-0.1,0-0.1,0-0.2
			c-0.2-0.9-0.4-1.9-0.6-3c-0.1-0.8-0.1-2.1-0.1-3.8H111.5z M116.7,6.9c0.3,0.2,0.6,0.4,0.8,0.6c0.3,0.2,0.5,0.4,0.6,0.6
			c0,0,0,0-0.1,0.1c-0.2,0.4-0.4,0.6-0.4,0.6c-0.3-0.3-0.5-0.6-0.8-0.8c-0.2-0.2-0.4-0.3-0.6-0.4c0-0.1,0.1-0.3,0.4-0.6
			C116.7,7,116.7,6.9,116.7,6.9z"/>
	</g>
	<g>
		<g>
			<polygon class="st2" points="72.3,26.3 72.3,39 69.8,39 69.8,33.8 65.1,33.8 65.1,39 62.6,39 62.6,26.3 65.1,26.3 65.1,31.5 
				69.8,31.5 69.8,26.3 			"/>
			<polygon class="st2" points="72.5,32.6 77.1,26.3 80.4,26.3 75.4,32.6 80.2,39 76.8,39 			"/>
		</g>
		<g>
			<g>
				<path class="st3" d="M119.9,25.1c0-1.1,0.9-2,1.9-2c1.1,0,1.9,0.9,1.9,2c0,1.1-0.9,1.9-1.9,1.9C120.8,27,119.9,26.1,119.9,25.1z
					"/>
				<rect x="120.4" y="28" class="st3" width="3" height="11"/>
			</g>
			<path class="st3" d="M142,36.7V28h3v10.8c0,1.4-0.4,2.5-1.1,3.2c-0.8,0.7-2,1-3.6,1h-5.4v-2.4h5.4c0.7,0,1.1-0.1,1.3-0.2
				c0.1-0.1,0.2-0.2,0.3-0.3c0.1-0.2,0.1-0.5,0.1-1h-2.7c-3.1,0.1-4.6-1.6-4.4-4.9V28h3v5.9c0,1.1,0.1,1.9,0.3,2.3
				c0.2,0.4,0.6,0.5,1.3,0.5H142z"/>
			<path class="st3" d="M127.2,28v-4.1h3V28h2.8v2.4h-2.8v4c0,0.9,0.1,1.5,0.3,1.8c0.3,0.4,0.7,0.5,1.4,0.5h1.2V39h-2.2
				c-1.3,0-2.3-0.3-2.8-1c-0.6-0.6-0.8-1.7-0.8-3.2v-4.5h-1.9V28H127.2z"/>
			<path class="st3" d="M118.4,36.3V39H114c-1,0-1.8-0.1-2.3-0.2c-1.8-0.4-3.2-1.4-4-3.1c-0.5-1.1-0.8-2.6-0.8-4.3
				c0-2,0.4-3.7,1.2-5c0.6-0.9,1.3-1.6,2.3-2c1-0.4,2.2-0.6,3.7-0.6h4.3v2.7h-3.9c-1.4,0-2.5,0.4-3.2,1.2c-0.6,0.6-0.8,1.8-0.8,3.5
				c0,2.2,0.4,3.7,1.3,4.4c0.6,0.5,1.5,0.7,2.8,0.7H118.4z"/>
		</g>
		<path class="st4" d="M102.3,39v-0.8c-0.2,0.3-0.6,0.5-1.2,0.7c-0.6,0.2-1.2,0.3-1.8,0.3c-1.7,0-3.1-0.5-4.1-1.6
			c-1-1.1-1.5-2.6-1.5-4.6c0-2,0.6-3.6,1.7-4.8c1.1-1.2,2.6-1.8,4.3-1.8c0.9,0,1.8,0.2,2.6,0.6v-5.7l2.9,0V39H102.3z M102.3,29.6
			c-0.6-0.5-1.3-0.7-1.9-0.7c-1.2,0-2.1,0.3-2.7,1.1c-0.6,0.7-0.9,1.7-0.9,3c0,2.6,1.2,3.9,3.7,3.9c0.3,0,0.6-0.1,1-0.2
			c0.4-0.2,0.7-0.3,0.8-0.5V29.6z"/>
		<path class="st4" d="M92.4,32.1c0-1.7-0.5-3-1.6-4.1c-1.1-1.1-2.5-1.6-4.3-1.6c-1.7,0-3.1,0.6-4.3,1.8c-1.2,1.2-1.8,2.8-1.8,4.7
			c0,2,0.6,3.5,1.7,4.6c1.1,1.1,2.6,1.7,4.5,1.7c1.7,0,3-0.3,4-0.9l0,0c0.7-0.5,0.9-0.7,1-0.9l-1.2-2.1c-0.1,0.1-0.3,0.3-0.4,0.4
			c-0.1,0.1-0.2,0.1-0.3,0.2c0,0,0,0,0,0c-0.7,0.5-1.6,0.8-2.7,0.8c-1.1,0-1.9-0.3-2.5-0.8c-0.6-0.5-1-1.3-1-2.3h8.9
			C92.3,33,92.4,32.4,92.4,32.1z M83.4,31.5c0.1-1.7,1.4-2.7,3.1-2.7c1.8,0,3,1.3,3,2.7H83.4z"/>
	</g>
</g>
</svg>
